PathFileType	4	(X/Y/Z)	E:\3-PhD\Data\MocapData\ElaboratedData\009\pre\dynamicElaborations\RunL1\RunL1.trc
DataRate	CameraRate	NumFrames	NumMarkers	Units	OrigDataRate	DataStartFrame
200	200	5	54	mm	200	438
Frame#	Time	FHD			LBHD			RBHD			C7			T10			CLAV			LSHO			LUUPA			LMUPA			LDUPA			LLEP			LMEP			LRAD			LUL			LRFIN			RSHO			RUPA1			RMUPA			RDUPA			RLEP			RMEP			RRAD			RUL			RUFIN			RASI			USACR			LSACR			RSACR			LTHI1			LTHI2			LTHI3			LTHI4			LTIB1			LTIB2			LTIB3			LTIB4			LLMAL			LHEE			LMT1			LMT2			RTHI			RTHI2			RTHI3			RTHI4			RLFC			RTIB1			RTIB2			RTIB3			RTIB4			RLMAL			RHEE			RMT1			RMT2			RMT5		
		X1	Y1	Z1	X2	Y2	Z2	X3	Y3	Z3	X4	Y4	Z4	X5	Y5	Z5	X6	Y6	Z6	X7	Y7	Z7	X8	Y8	Z8	X9	Y9	Z9	X10	Y10	Z10	X11	Y11	Z11	X12	Y12	Z12	X13	Y13	Z13	X14	Y14	Z14	X15	Y15	Z15	X16	Y16	Z16	X17	Y17	Z17	X18	Y18	Z18	X19	Y19	Z19	X20	Y20	Z20	X21	Y21	Z21	X22	Y22	Z22	X23	Y23	Z23	X24	Y24	Z24	X25	Y25	Z25	X26	Y26	Z26	X27	Y27	Z27	X28	Y28	Z28	X29	Y29	Z29	X30	Y30	Z30	X31	Y31	Z31	X32	Y32	Z32	X33	Y33	Z33	X34	Y34	Z34	X35	Y35	Z35	X36	Y36	Z36	X37	Y37	Z37	X38	Y38	Z38	X39	Y39	Z39	X40	Y40	Z40	X41	Y41	Z41	X42	Y42	Z42	X43	Y43	Z43	X44	Y44	Z44	X45	Y45	Z45	X46	Y46	Z46	X47	Y47	Z47	X48	Y48	Z48	X49	Y49	Z49	X50	Y50	Z50	X51	Y51	Z51	X52	Y52	Z52	X53	Y53	Z53	X54	Y54	Z54	

452	2.255000	-2436.326822	1509.255778	391.139982	-2601.505554	1578.479929	301.813754	-2568.955020	1553.903146	422.884147	-2704.096560	1458.389258	359.372519	-2915.682638	1178.222776	399.284629	-2622.584358	1318.048674	327.828408	-2654.723308	1383.631308	189.134613	-2827.048136	1359.535666	94.528007	-2837.040396	1311.856231	88.150650	-2890.100718	1338.573420	77.752137	-3004.470002	1307.805255	58.943884	-3024.272083	1304.754262	129.212537	-3034.860070	1048.533592	61.153789	-3105.004367	1055.414300	32.788471	-3023.677315	992.386254	13.345107	-2611.654416	1411.833633	487.343405	-2635.393279	1270.339147	597.305135	-2605.168905	1237.537308	591.448117	-2641.420929	1209.625039	630.156401	-2637.864814	1073.591822	655.336715	-2681.138532	1048.976440	598.707387	-2444.154566	1123.166384	494.017390	-2419.670770	1071.334018	524.440411	-2378.950985	1160.482027	520.905400	-2830.649069	940.476760	491.412341	-2961.852981	1102.333860	396.846412	-2981.071776	1074.556493	369.803517	-2973.865936	1073.047550	427.862832	-2795.638987	798.592408	170.370217	-2719.155819	761.284276	170.946195	-2685.808266	790.689934	189.728142	-2706.803648	700.024339	174.180446	-2562.042080	460.621501	238.224397	-2619.097292	407.544416	198.251561	-2580.073485	410.127930	216.515190	-2569.736950	334.549558	257.786299	-2613.886719	172.945688	269.091994	-2682.986874	124.454314	324.302740	-2462.522308	156.922252	339.317086	-2459.965711	145.480350	294.920160	-2989.642821	720.190475	543.665625	-2988.493952	655.973188	527.219135	-2963.034877	640.552289	514.566202	-3058.669133	607.975761	519.602480	-3113.286461	516.751972	492.527400	-3308.292090	416.807344	454.226832	-3398.793182	466.449549	490.999827	-3390.540082	423.540478	478.521570	-3434.566845	401.964918	442.416705	-3540.699991	439.118072	470.342123	-3566.149778	510.731755	423.142525	-3612.247770	292.509698	380.504248	-3617.392786	288.592918	425.117228	-3646.160663	333.006215	475.591492	
453	2.260000	-2407.711567	1509.474077	389.880234	-2572.899678	1578.428955	300.363132	-2540.349946	1554.174054	421.410628	-2674.428556	1459.322647	358.428122	-2887.611908	1179.978767	398.637770	-2594.448647	1317.554545	327.246243	-2627.501250	1383.600545	187.942906	-2800.616422	1353.440228	93.432341	-2808.807209	1305.406389	87.835850	-2862.810443	1329.788375	76.770563	-2975.973964	1294.491513	58.961254	-2995.770489	1291.377360	129.370167	-2992.134626	1034.236407	65.299993	-3062.428715	1036.864752	36.590220	-2977.610721	978.075319	19.099945	-2581.843850	1409.379716	487.777244	-2612.275456	1268.037715	597.056720	-2584.320491	1233.256378	590.273967	-2621.727057	1207.561554	629.604025	-2624.987554	1071.738073	655.511120	-2668.469792	1049.147815	598.455046	-2422.657413	1100.574193	500.014881	-2403.995093	1047.040874	531.364888	-2354.611289	1131.752707	528.259581	-2800.493584	942.452219	490.705491	-2934.161683	1103.095747	396.870872	-2953.356030	1075.082251	370.069906	-2945.459447	1073.811870	428.056116	-2771.989551	793.871860	168.682930	-2696.610097	754.194055	168.680056	-2662.089548	782.860636	186.456653	-2686.127724	692.641949	172.370811	-2540.767455	453.736531	235.840623	-2598.338151	399.869265	197.728329	-2558.828070	402.938661	214.936905	-2546.445238	327.603416	256.168922	-2588.522342	165.408187	268.970707	-2656.053786	117.167223	326.079600	-2435.648770	150.508684	336.536489	-2433.985225	138.474425	292.365841	-2956.386189	718.936582	544.741757	-2953.623952	654.528893	528.610289	-2927.694243	639.580034	516.462716	-3022.356702	604.506642	520.944189	-3074.604271	512.447454	494.141565	-3272.006977	421.166198	453.526004	-3360.559312	475.473671	488.812495	-3354.206322	432.210448	476.357459	-3398.790940	412.799674	439.837279	-3503.488072	455.443266	466.772250	-3525.280576	527.732098	418.590617	-3579.516970	311.598819	376.895362	-3585.309374	308.483352	421.878043	-3612.552721	353.942850	471.274632	
454	2.265000	-2379.283885	1509.412630	388.704342	-2544.478930	1578.163149	299.039171	-2511.945645	1554.120955	420.078716	-2645.075827	1459.949230	357.430337	-2859.470547	1181.289836	398.079000	-2566.374060	1316.810036	326.599620	-2600.288222	1383.435956	186.773287	-2773.879831	1346.887533	92.393357	-2780.169182	1298.566120	87.570825	-2835.068155	1320.476298	75.868698	-2946.766532	1280.460562	59.060938	-2966.540211	1277.244127	129.598075	-2948.275852	1020.070338	69.576025	-3018.493324	1018.307106	40.654398	-2930.324645	964.152880	25.003910	-2552.493370	1406.768711	488.060321	-2589.259624	1265.836751	596.691116	-2563.649977	1229.233730	588.775767	-2601.955156	1205.686813	628.817183	-2611.988515	1070.444683	655.621404	-2655.479136	1049.785803	598.148383	-2402.846472	1077.528996	506.695595	-2390.308493	1022.770379	538.928704	-2332.519527	1102.190423	536.525832	-2770.333934	943.981736	490.050773	-2906.320382	1103.336676	397.113942	-2925.513542	1075.120418	370.563722	-2916.888344	1074.044659	428.466341	-2748.574831	788.972325	167.125400	-2674.330727	747.012519	166.542642	-2638.705687	774.945572	183.240847	-2665.633984	685.235938	170.785644	-2520.511877	446.636693	233.326967	-2579.065352	392.420627	197.215891	-2539.067136	395.698309	213.323869	-2525.029286	320.535667	254.352630	-2566.094083	158.081179	268.726852	-2632.315963	110.518038	327.773245	-2411.839356	143.283197	333.492989	-2411.189963	130.714061	289.522401	-2923.064630	717.387338	545.685683	-2918.640735	652.864507	530.145469	-2892.228074	638.398001	518.473020	-2985.865382	600.865580	522.277943	-3035.511064	507.985727	495.884722	-3234.553989	425.126458	452.820866	-3320.981003	483.762076	486.675718	-3316.446745	440.172617	473.972593	-3361.479327	423.034686	437.231665	-3464.394493	470.990824	463.377376	-3482.528514	543.798408	414.117119	-3545.083778	329.953409	373.526604	-3551.434183	327.719343	418.831165	-3577.029175	374.222148	467.162965	
455	2.270000	-2351.061097	1509.085300	387.614130	-2516.250441	1577.713128	297.845949	-2483.756391	1553.755758	418.883111	-2616.105487	1460.233999	356.357993	-2831.250832	1182.112211	397.617800	-2538.362057	1315.854050	325.862767	-2573.098833	1383.133104	185.617852	-2746.798605	1339.886016	91.430125	-2751.089708	1291.358331	87.356365	-2806.823319	1310.671168	75.065813	-2916.776198	1265.768275	59.236206	-2936.512968	1262.400598	129.894914	-2903.299432	1006.155284	73.985791	-2973.186247	999.887395	44.974940	-2881.858902	950.755280	31.020679	-2523.623418	1404.056905	488.193698	-2566.302987	1263.753329	596.221319	-2543.052432	1225.526855	587.024056	-2582.006524	1203.996534	627.854488	-2598.762580	1069.717272	655.686050	-2642.099451	1050.861561	597.833916	-2384.878898	1054.365009	513.991276	-2378.656427	998.934929	547.062850	-2312.921215	1072.295695	545.584210	-2740.200018	945.032667	489.458804	-2878.323127	1103.063459	397.581189	-2897.545214	1074.687994	371.279098	-2888.164044	1073.742695	429.087132	-2725.341786	783.978718	165.775353	-2652.249136	739.865449	164.603665	-2615.611233	767.086209	180.162569	-2645.212556	677.938345	169.474489	-2501.192876	439.265430	230.814101	-2561.067242	385.116335	196.681852	-2520.634431	388.335104	211.765422	-2505.395680	313.268954	252.452155	-2546.502755	150.865982	268.366592	-2611.754298	104.364047	329.238569	-2391.090225	135.253946	330.420540	-2391.498667	122.245807	286.612245	-2889.604020	715.486497	546.387715	-2883.483734	650.956016	531.750550	-2856.580863	636.987933	520.510575	-2949.134986	597.036280	523.570621	-2995.976708	503.391102	497.714878	-3195.993062	428.676949	452.156472	-3280.148646	491.297578	484.621253	-3277.348596	447.427459	471.497382	-3322.720694	432.616792	434.693962	-3423.569316	485.654739	460.195185	-3438.135039	558.823560	409.803793	-3508.936894	347.411691	370.456093	-3515.745970	346.090424	415.998318	-3539.631301	393.613297	463.326604	
456	2.275000	-2323.056050	1508.511239	386.610058	-2488.217451	1577.112498	296.781957	-2455.793263	1553.102085	417.814721	-2587.557472	1460.153376	355.198394	-2802.957001	1182.411366	397.252868	-2510.413186	1314.724424	325.024155	-2545.945542	1382.685076	184.472676	-2719.332853	1332.446654	90.557415	-2721.531316	1283.807563	87.195657	-2778.025645	1300.405687	74.372350	-2885.932627	1250.474763	59.475545	-2905.623562	1246.900819	130.251850	-2857.227367	992.611107	78.533389	-2926.501372	981.753938	49.538032	-2832.259795	938.013014	37.122276	-2495.226556	1401.285529	488.191068	-2543.370331	1261.790995	595.668616	-2522.438546	1222.166371	585.105812	-2561.803227	1202.477590	626.783687	-2585.231924	1069.547332	655.736761	-2628.292785	1052.344112	597.556879	-2368.851429	1031.436512	521.809156	-2369.011688	975.946479	555.682561	-2295.962948	1042.607286	555.287466	-2710.117676	945.577043	488.926794	-2850.174760	1102.294186	398.264359	-2869.456512	1073.809821	372.196210	-2859.303884	1072.912103	429.898665	-2702.233835	778.969353	164.702805	-2630.296385	732.862471	162.927675	-2592.746927	759.415094	177.273729	-2624.759584	670.864521	168.491265	-2482.723964	431.573291	228.469544	-2544.106496	377.884738	196.102678	-2503.343035	380.789616	210.355984	-2487.444526	305.743354	250.605426	-2529.611737	143.700270	267.909493	-2594.309981	98.566035	330.325497	-2373.366597	126.508630	327.583445	-2374.784412	113.211909	283.889372	-2855.922847	713.198231	546.805002	-2848.078869	648.783407	533.361781	-2820.683100	635.338386	522.502840	-2912.089230	592.996445	524.804879	-2955.956680	498.682719	499.591504	-3156.379675	431.813177	451.571918	-3238.148373	498.085125	482.682988	-3237.002258	453.999463	469.069072	-3282.611580	441.507215	432.314229	-3381.178774	499.349793	457.255972	-3392.360786	572.730312	405.731027	-3471.076551	363.828869	367.729051	-3478.241168	363.401101	413.401797	-3500.421672	411.894780	459.825296	
